<svg height="512pt" viewBox="0 -1 512.00001 512" width="512pt" xmlns="http://www.w3.org/2000/svg"><path d="m58.140625 71.765625h-37.042969c-7.523437 0-13.621094-6.101563-13.621094-13.625v-37.042969c0-7.523437 6.097657-13.621094 13.621094-13.621094h37.042969c7.523437 0 13.625 6.097657 13.625 13.621094v37.042969c0 7.523437-6.101563 13.625-13.625 13.625zm0 0" fill="#f9b428"/><path d="m272.554688 71.765625h-37.042969c-7.527344 0-13.625-6.101563-13.625-13.625v-37.042969c0-7.523437 6.097656-13.621094 13.625-13.621094h37.042969c7.523437 0 13.621093 6.097657 13.621093 13.621094v37.042969c0 7.523437-6.097656 13.625-13.621093 13.625zm0 0" fill="#92e0c0"/><path d="m440.234375 58.140625v-37.042969c0-7.523437 6.101563-13.621094 13.621094-13.621094h37.046875c7.523437 0 13.621094 6.097657 13.621094 13.621094v37.042969c0 7.523437-6.097657 13.625-13.621094 13.625h-37.046875c-7.519531 0-13.621094-6.101563-13.621094-13.625zm0 0" fill="#f9b428"/><path d="m440.234375 272.554688v-37.042969c0-7.527344 6.101563-13.625 13.621094-13.625h37.046875c7.523437 0 13.621094 6.097656 13.621094 13.625v37.042969c0 7.523437-6.097657 13.621093-13.621094 13.621093h-37.046875c-7.519531 0-13.621094-6.097656-13.621094-13.621093zm0 0" fill="#ffc850"/><path d="m453.859375 438.53125h37.042969c7.523437 0 13.621094 6.097656 13.621094 13.621094v37.042968c0 7.523438-6.097657 13.625-13.621094 13.625h-37.042969c-7.523437 0-13.625-6.101562-13.625-13.625v-37.042968c0-7.523438 6.101563-13.621094 13.625-13.621094zm0 0" fill="#92e0c0"/><path d="m239.445312 438.53125h37.042969c7.527344 0 13.625 6.097656 13.625 13.621094v37.042968c0 7.523438-6.097656 13.625-13.625 13.625h-37.042969c-7.523437 0-13.621093-6.101562-13.621093-13.625v-37.042968c0-7.523438 6.097656-13.621094 13.621093-13.621094zm0 0" fill="#ffc850"/><path d="m71.765625 452.152344v37.042968c0 7.523438-6.101563 13.625-13.625 13.625h-37.042969c-7.523437 0-13.621094-6.101562-13.621094-13.625v-37.042968c0-7.523438 6.097657-13.621094 13.621094-13.621094h37.042969c7.523437 0 13.625 6.097656 13.625 13.621094zm0 0" fill="#abffdb"/><path d="m71.765625 237.742188v37.042968c0 7.523438-6.101563 13.625-13.625 13.625h-37.042969c-7.523437 0-13.621094-6.101562-13.621094-13.625v-37.042968c0-7.523438 6.097657-13.625 13.621094-13.625h37.042969c7.523437 0 13.625 6.101562 13.625 13.625zm0 0" fill="#abffdb"/><g fill="#474d54"><path d="m176.644531 289.027344-33.882812-33.878906 33.882812-33.882813c2.917969-2.917969 2.917969-7.652344 0-10.570313-2.921875-2.917968-7.652343-2.917968-10.570312 0l-39.167969 39.167969c-2.917969 2.917969-2.917969 7.652344 0 10.570313l39.167969 39.167968c1.457031 1.457032 3.371093 2.1875 5.285156 2.1875s3.828125-.730468 5.285156-2.1875c2.917969-2.921874 2.917969-7.652343 0-10.574218zm0 0"/><path d="m345.925781 210.695312c-2.917969-2.917968-7.652343-2.917968-10.570312 0-2.917969 2.917969-2.917969 7.652344 0 10.570313l33.882812 33.882813-33.882812 33.878906c-2.917969 2.921875-2.917969 7.652344 0 10.574218 1.460937 1.457032 3.375 2.1875 5.285156 2.1875 1.914063 0 3.828125-.730468 5.289063-2.1875l39.164062-39.167968c2.921875-2.921875 2.921875-7.652344 0-10.570313zm0 0"/><path d="m247.164062 214.59375c-3.640624-1.945312-8.171874-.570312-10.113281 3.070312l-39.058593 73.128907c-1.949219 3.640625-.570313 8.171875 3.070312 10.117187 1.121094.597656 2.324219.882813 3.515625.882813 2.667969 0 5.25-1.433594 6.597656-3.957031l39.058594-73.128907c1.945313-3.640625.570313-8.171875-3.070313-10.113281zm0 0"/><path d="m246.035156 292.457031v.890625c0 4.125 3.34375 7.472656 7.476563 7.472656 4.128906 0 7.472656-3.347656 7.472656-7.472656v-.890625c0-4.128906-3.34375-7.476562-7.472656-7.476562-4.132813 0-7.476563 3.347656-7.476563 7.476562zm0 0"/><path d="m274.726562 292.457031v.890625c0 4.125 3.34375 7.472656 7.472657 7.472656 4.128906 0 7.476562-3.347656 7.476562-7.472656v-.890625c0-4.128906-3.347656-7.476562-7.476562-7.476562-4.128907 0-7.472657 3.347656-7.472657 7.476562zm0 0"/><path d="m318.363281 293.347656v-.890625c0-4.128906-3.34375-7.476562-7.472656-7.476562s-7.476563 3.347656-7.476563 7.476562v.890625c0 4.125 3.347657 7.472656 7.476563 7.472656s7.472656-3.347656 7.472656-7.472656zm0 0"/><path d="m58.140625 0h-37.042969c-11.632812 0-21.097656 9.464844-21.097656 21.097656v37.042969c0 11.636719 9.464844 21.097656 21.097656 21.097656h37.042969c11.636719 0 21.097656-9.460937 21.097656-21.09375v-37.046875c0-11.632812-9.460937-21.097656-21.097656-21.097656zm6.148437 58.140625c0 3.390625-2.757812 6.148437-6.148437 6.148437h-37.042969c-3.390625 0-6.148437-2.757812-6.148437-6.148437v-37.042969c0-3.390625 2.757812-6.148437 6.148437-6.148437h37.042969c3.390625 0 6.148437 2.757812 6.148437 6.148437zm0 0"/><path d="m100.378906 44.429688h14.933594c4.128906 0 7.472656-3.34375 7.472656-7.472657 0-4.128906-3.34375-7.476562-7.472656-7.476562h-14.933594c-4.128906 0-7.472656 3.347656-7.472656 7.476562 0 4.128907 3.34375 7.472657 7.472656 7.472657zm0 0"/><path d="m140.476562 44.429688h14.929688c4.128906 0 7.476562-3.34375 7.476562-7.472657 0-4.128906-3.347656-7.476562-7.476562-7.476562h-14.929688c-4.128906 0-7.476562 3.347656-7.476562 7.476562 0 4.128907 3.347656 7.472657 7.476562 7.472657zm0 0"/><path d="m180.574219 44.429688h14.929687c4.128906 0 7.476563-3.34375 7.476563-7.472657 0-4.128906-3.347657-7.476562-7.476563-7.476562h-14.929687c-4.128907 0-7.476563 3.347656-7.476563 7.476562 0 4.128907 3.347656 7.472657 7.476563 7.472657zm0 0"/><path d="m228.691406 78.097656c3.902344 1.335938 8.152344-.75 9.488282-4.65625 1.335937-3.90625-.75-8.15625-4.65625-9.488281-2.488282-.851563-4.164063-3.1875-4.164063-5.8125v-37.042969c0-3.390625 2.761719-6.148437 6.148437-6.148437h37.046876c3.386718 0 6.144531 2.757812 6.144531 6.148437v37.042969c0 3.390625-2.757813 6.148437-6.144531 6.148437h-10.933594c-4.128906 0-7.472656 3.347657-7.472656 7.476563 0 4.125 3.34375 7.472656 7.472656 7.472656h10.933594c11.632812 0 21.097656-9.464843 21.097656-21.097656v-37.042969c0-11.632812-9.464844-21.097656-21.097656-21.097656h-37.046876c-11.632812 0-21.097656 9.464844-21.097656 21.097656v37.042969c0 9.019531 5.738282 17.039063 14.28125 19.957031zm0 0"/><path d="m314.792969 44.429688h14.929687c4.128906 0 7.472656-3.34375 7.472656-7.472657 0-4.128906-3.34375-7.476562-7.472656-7.476562h-14.929687c-4.132813 0-7.476563 3.347656-7.476563 7.476562 0 4.128907 3.34375 7.472657 7.476563 7.472657zm0 0"/><path d="m354.886719 44.429688h14.929687c4.132813 0 7.476563-3.34375 7.476563-7.472657 0-4.128906-3.34375-7.476562-7.476563-7.476562h-14.929687c-4.128907 0-7.476563 3.347656-7.476563 7.476562 0 4.128907 3.347656 7.472657 7.476563 7.472657zm0 0"/><path d="m394.984375 44.429688h14.933594c4.128906 0 7.472656-3.34375 7.472656-7.472657 0-4.128906-3.34375-7.476562-7.472656-7.476562h-14.933594c-4.128906 0-7.472656 3.347656-7.472656 7.476562 0 4.128907 3.34375 7.472657 7.472656 7.472657zm0 0"/><path d="m490.902344 0h-37.042969c-11.636719 0-21.097656 9.464844-21.097656 21.097656v37.042969c0 11.632813 9.460937 21.097656 21.097656 21.097656h37.042969c11.632812 0 21.097656-9.464843 21.097656-21.097656v-37.042969c0-11.632812-9.464844-21.097656-21.097656-21.097656zm6.148437 58.140625c0 3.390625-2.757812 6.148437-6.148437 6.148437h-37.042969c-3.390625 0-6.148437-2.757812-6.148437-6.148437v-37.042969c0-3.390625 2.757812-6.148437 6.148437-6.148437h37.042969c3.390625 0 6.148437 2.757812 6.148437 6.148437zm0 0"/><path d="m475.042969 122.785156c4.128906 0 7.476562-3.347656 7.476562-7.472656v-14.933594c0-4.128906-3.347656-7.472656-7.476562-7.472656-4.128907 0-7.472657 3.34375-7.472657 7.472656v14.933594c0 4.125 3.34375 7.472656 7.472657 7.472656zm0 0"/><path d="m467.570312 155.40625c0 4.128906 3.34375 7.476562 7.472657 7.476562 4.128906 0 7.476562-3.347656 7.476562-7.476562v-14.929688c0-4.128906-3.347656-7.476562-7.476562-7.476562-4.128907 0-7.472657 3.347656-7.472657 7.476562zm0 0"/><path d="m467.570312 195.503906c0 4.128906 3.34375 7.476563 7.472657 7.476563 4.128906 0 7.476562-3.347657 7.476562-7.476563v-14.929687c0-4.128907-3.347656-7.476563-7.476562-7.476563-4.128907 0-7.472657 3.347656-7.472657 7.476563zm0 0"/><path d="m490.902344 214.410156h-37.042969c-11.636719 0-21.097656 9.464844-21.097656 21.097656v12.023438c0 4.128906 3.34375 7.472656 7.472656 7.472656s7.476563-3.34375 7.476563-7.472656v-12.023438c0-3.386718 2.757812-6.144531 6.148437-6.144531h37.042969c3.390625 0 6.148437 2.757813 6.148437 6.144531v37.042969c0 3.390625-2.757812 6.148438-6.148437 6.148438h-37.042969c-2.429687 0-4.636719-1.441407-5.625-3.675781-1.667969-3.773438-6.082031-5.484376-9.855469-3.816407-3.777344 1.667969-5.488281 6.082031-3.820312 9.859375 3.375 7.644532 10.949218 12.582032 19.296875 12.582032h37.046875c11.632812 0 21.097656-9.464844 21.097656-21.097657v-37.042969c0-11.632812-9.464844-21.097656-21.097656-21.097656zm0 0"/><path d="m475.042969 337.195312c4.128906 0 7.476562-3.34375 7.476562-7.472656v-14.929687c0-4.128907-3.347656-7.476563-7.476562-7.476563-4.128907 0-7.472657 3.347656-7.472657 7.476563v14.929687c0 4.128906 3.34375 7.472656 7.472657 7.472656zm0 0"/><path d="m467.570312 369.820312c0 4.128907 3.34375 7.472657 7.472657 7.472657 4.128906 0 7.476562-3.34375 7.476562-7.472657v-14.933593c0-4.125-3.347656-7.472657-7.476562-7.472657-4.128907 0-7.472657 3.347657-7.472657 7.472657zm0 0"/><path d="m467.570312 409.917969c0 4.125 3.34375 7.472656 7.472657 7.472656 4.128906 0 7.476562-3.347656 7.476562-7.472656v-14.933594c0-4.128906-3.347656-7.472656-7.476562-7.472656-4.128907 0-7.472657 3.34375-7.472657 7.472656zm0 0"/><path d="m490.902344 431.054688h-37.042969c-11.636719 0-21.097656 9.464843-21.097656 21.097656v37.042968c0 11.632813 9.460937 21.097657 21.097656 21.097657h37.042969c11.632812 0 21.097656-9.464844 21.097656-21.097657v-37.042968c0-11.632813-9.464844-21.097656-21.097656-21.097656zm6.148437 58.140624c0 3.390626-2.757812 6.148438-6.148437 6.148438h-37.042969c-3.390625 0-6.148437-2.757812-6.148437-6.148438v-37.042968c0-3.386719 2.757812-6.144532 6.148437-6.144532h37.042969c3.390625 0 6.148437 2.757813 6.148437 6.144532zm0 0"/><path d="m411.621094 465.863281h-14.933594c-4.128906 0-7.472656 3.347657-7.472656 7.476563s3.34375 7.472656 7.472656 7.472656h14.933594c4.128906 0 7.472656-3.34375 7.472656-7.472656s-3.34375-7.476563-7.472656-7.476563zm0 0"/><path d="m371.523438 465.863281h-14.929688c-4.128906 0-7.476562 3.347657-7.476562 7.476563s3.347656 7.472656 7.476562 7.472656h14.929688c4.128906 0 7.476562-3.34375 7.476562-7.472656s-3.347656-7.476563-7.476562-7.476563zm0 0"/><path d="m331.425781 465.863281h-14.929687c-4.128906 0-7.476563 3.347657-7.476563 7.476563s3.347657 7.472656 7.476563 7.472656h14.929687c4.128907 0 7.476563-3.34375 7.476563-7.472656s-3.347656-7.476563-7.476563-7.476563zm0 0"/><path d="m276.488281 431.054688h-37.042969c-11.632812 0-21.097656 9.464843-21.097656 21.097656v37.042968c0 11.632813 9.464844 21.097657 21.097656 21.097657h37.042969c11.636719 0 21.101563-9.464844 21.101563-21.097657v-37.042968c0-11.632813-9.464844-21.097656-21.101563-21.097656zm6.148438 58.140624c0 3.390626-2.757813 6.148438-6.148438 6.148438h-37.042969c-3.386718 0-6.148437-2.757812-6.148437-6.148438v-37.042968c0-3.386719 2.761719-6.144532 6.148437-6.144532h37.042969c3.390625 0 6.148438 2.757813 6.148438 6.144532zm0 0"/><path d="m197.207031 465.863281h-14.929687c-4.128906 0-7.472656 3.347657-7.472656 7.476563s3.34375 7.472656 7.472656 7.472656h14.929687c4.132813 0 7.476563-3.34375 7.476563-7.472656s-3.34375-7.476563-7.476563-7.476563zm0 0"/><path d="m157.113281 465.863281h-14.929687c-4.132813 0-7.476563 3.347657-7.476563 7.476563s3.34375 7.472656 7.476563 7.472656h14.929687c4.128907 0 7.476563-3.34375 7.476563-7.472656s-3.347656-7.476563-7.476563-7.476563zm0 0"/><path d="m117.015625 465.863281h-14.933594c-4.128906 0-7.472656 3.347657-7.472656 7.476563s3.34375 7.472656 7.472656 7.472656h14.933594c4.128906 0 7.472656-3.34375 7.472656-7.472656s-3.34375-7.476563-7.472656-7.476563zm0 0"/><path d="m58.140625 431.054688h-37.042969c-11.632812 0-21.097656 9.464843-21.097656 21.097656v37.042968c0 11.636719 9.464844 21.097657 21.097656 21.097657h37.042969c11.636719 0 21.097656-9.460938 21.097656-21.097657v-37.042968c0-11.632813-9.460937-21.097656-21.097656-21.097656zm6.148437 58.140624c0 3.390626-2.757812 6.148438-6.148437 6.148438h-37.042969c-3.390625 0-6.148437-2.757812-6.148437-6.148438v-37.042968c0-3.386719 2.757812-6.144532 6.148437-6.144532h37.042969c3.390625 0 6.148437 2.757813 6.148437 6.144532zm0 0"/><path d="m29.480469 409.917969c0 4.125 3.347656 7.472656 7.476562 7.472656 4.128907 0 7.472657-3.347656 7.472657-7.472656v-14.933594c0-4.128906-3.34375-7.472656-7.472657-7.472656-4.128906 0-7.476562 3.34375-7.476562 7.472656zm0 0"/><path d="m29.480469 369.820312c0 4.128907 3.347656 7.472657 7.476562 7.472657 4.128907 0 7.472657-3.34375 7.472657-7.472657v-14.933593c0-4.125-3.34375-7.472657-7.472657-7.472657-4.128906 0-7.476562 3.347657-7.476562 7.472657zm0 0"/><path d="m36.957031 337.195312c4.128907 0 7.472657-3.34375 7.472657-7.472656v-14.929687c0-4.128907-3.34375-7.476563-7.472657-7.476563-4.128906 0-7.476562 3.347656-7.476562 7.476563v14.929687c0 4.128906 3.347656 7.472656 7.476562 7.472656zm0 0"/><path d="m58.140625 216.644531h-37.042969c-11.632812 0-21.097656 9.464844-21.097656 21.097657v37.042968c0 11.632813 9.464844 21.097656 21.097656 21.097656h37.042969c11.636719 0 21.097656-9.464843 21.097656-21.097656v-3.382812c0-4.128906-3.34375-7.476563-7.472656-7.476563s-7.476563 3.347657-7.476563 7.476563v3.382812c0 3.390625-2.757812 6.148438-6.148437 6.148438h-37.042969c-3.390625 0-6.148437-2.757813-6.148437-6.148438v-37.042968c0-3.390626 2.757812-6.148438 6.148437-6.148438h37.042969c3.390625 0 6.148437 2.757812 6.148437 6.148438v3.144531c0 4.128906 3.347657 7.476562 7.476563 7.476562s7.472656-3.347656 7.472656-7.476562v-3.144531c0-11.632813-9.460937-21.097657-21.097656-21.097657zm0 0"/><path d="m29.480469 195.503906c0 4.128906 3.347656 7.476563 7.476562 7.476563 4.128907 0 7.472657-3.347657 7.472657-7.476563v-14.929687c0-4.128907-3.34375-7.476563-7.472657-7.476563-4.128906 0-7.476562 3.347656-7.476562 7.476563zm0 0"/><path d="m29.480469 155.40625c0 4.128906 3.347656 7.476562 7.476562 7.476562 4.128907 0 7.472657-3.347656 7.472657-7.476562v-14.929688c0-4.128906-3.34375-7.476562-7.472657-7.476562-4.128906 0-7.476562 3.347656-7.476562 7.476562zm0 0"/><path d="m36.957031 122.785156c4.128907 0 7.472657-3.347656 7.472657-7.472656v-14.933594c0-4.128906-3.34375-7.472656-7.472657-7.472656-4.128906 0-7.476562 3.34375-7.476562 7.472656v14.933594c0 4.125 3.347656 7.472656 7.476562 7.472656zm0 0"/></g></svg>