<svg height="512pt" viewBox="0 -46 512.00299 512" width="512pt" xmlns="http://www.w3.org/2000/svg"><path d="m338.101562 38.304688v104.441406c0 17.277344-36.765624 31.28125-82.097656 31.28125-45.34375 0-82.097656-14.003906-82.097656-31.28125v-104.441406zm0 0" fill="#92e0c0"/><path d="m338.101562 38.304688v27.777343c-18.835937 13.445313-51.230468 19.765625-82.097656 19.765625-30.875 0-63.273437-6.320312-82.097656-19.765625v-27.777343zm0 0" fill="#48c397"/><path d="m173.902344 94.167969c0 17.273437 36.757812 31.28125 82.097656 31.28125s82.097656-14.007813 82.097656-31.28125v48.574219c0 17.277343-36.757812 31.285156-82.097656 31.285156s-82.097656-14.003906-82.097656-31.285156zm0 0" fill="#abffdb"/><path d="m338.097656 38.300781c0-17.277343-36.753906-31.28125-82.097656-31.28125-45.339844 0-82.097656 14.003907-82.097656 31.28125 0 17.277344 36.757812 31.285157 82.097656 31.285157 45.34375 0 82.097656-14.007813 82.097656-31.285157zm0 0" fill="#abffdb"/><path d="m171.699219 277.085938v104.441406c0 17.277344-36.761719 31.28125-82.09375 31.28125-45.347657 0-82.097657-14.003906-82.097657-31.28125v-104.441406zm0 0" fill="#92e0c0"/><path d="m171.699219 277.085938v27.777343c-18.832031 13.445313-51.230469 19.765625-82.09375 19.765625-30.878907 0-63.277344-6.320312-82.097657-19.765625v-27.777343zm0 0" fill="#48c397"/><path d="m7.5 332.949219c0 17.277343 36.757812 31.28125 82.097656 31.28125 45.34375 0 82.097656-14.003907 82.097656-31.28125v48.578125c0 17.277344-36.753906 31.28125-82.097656 31.28125-45.339844 0-82.097656-14.003906-82.097656-31.28125zm0 0" fill="#abffdb"/><path d="m171.695312 277.085938c0-17.277344-36.753906-31.285157-82.097656-31.285157-45.339844 0-82.097656 14.007813-82.097656 31.285157 0 17.277343 36.757812 31.28125 82.097656 31.28125 45.34375 0 82.097656-14.003907 82.097656-31.28125zm0 0" fill="#abffdb"/><path d="m504.503906 277.085938v104.441406c0 17.277344-36.765625 31.28125-82.097656 31.28125-45.347656 0-82.097656-14.003906-82.097656-31.28125v-104.441406zm0 0" fill="#92e0c0"/><path d="m504.503906 277.085938v27.777343c-18.835937 13.445313-51.234375 19.765625-82.097656 19.765625-30.878906 0-63.273438-6.320312-82.097656-19.765625v-27.777343zm0 0" fill="#48c397"/><path d="m340.300781 332.949219c0 17.277343 36.757813 31.28125 82.101563 31.28125 45.339844 0 82.097656-14.003907 82.097656-31.28125v48.578125c0 17.277344-36.757812 31.28125-82.097656 31.28125-45.34375 0-82.101563-14.003906-82.101563-31.28125zm0 0" fill="#abffdb"/><path d="m504.5 277.085938c0-17.277344-36.757812-31.285157-82.097656-31.285157-45.34375 0-82.097656 14.007813-82.097656 31.285157 0 17.277343 36.753906 31.28125 82.097656 31.28125 45.339844 0 82.097656-14.003907 82.097656-31.28125zm0 0" fill="#abffdb"/><g fill="#474d54"><path d="m483.125 247.957031c-16.339844-6.226562-37.90625-9.65625-60.722656-9.65625-1.894532 0-3.769532.035157-5.640625.082031.40625-4.691406.632812-9.414062.632812-14.121093 0-54.300781-26.765625-104.171875-71.796875-134.246094v-51.714844c0-.261719-.011718-.519531-.039062-.773437-.839844-22.492188-37.945313-35.039063-74.746094-37.5078128-4.132812-.2851562-7.710938 2.8476568-7.988281 6.9804688-.273438 4.132812 2.851562 7.707031 6.980469 7.984375 39.144531 2.625 60.792968 15.453125 60.792968 23.316406 0 3.59375-5.035156 9.707031-19.21875 15.113281-14.675781 5.589844-34.34375 8.667969-55.382812 8.667969-21.039063 0-40.707032-3.078125-55.378906-8.667969-14.183594-5.40625-19.214844-11.519531-19.214844-15.113281 0-7.824219 20.457031-20.234375 58.863281-23.1875 4.128906-.316406 7.222656-3.921875 6.902344-8.050781-.316407-4.128906-3.902344-7.222656-8.050781-6.902344-35.777344 2.746094-71.847657 15.363282-72.679688 37.371094-.023438.253906-.039062.507812-.039062.769531v51.71875c-44.976563 30.070313-71.792969 80.136719-71.792969 134.242188 0 4.707031.230469 9.425781.636719 14.117187-1.875-.046875-3.753907-.078125-5.644532-.078125-22.820312 0-44.386718 3.429688-60.722656 9.652344-18.621094 7.097656-28.875 17.441406-28.875 29.132813v104.441406c0 11.6875 10.253906 22.03125 28.875 29.128906 16.339844 6.226562 37.90625 9.652344 60.722656 9.652344 22.820313 0 44.386719-3.429688 60.726563-9.652344 18.617187-7.097656 28.875-17.441406 28.875-29.128906v-15.300782c17.679687 9.609376 36.773437 15.730469 56.910156 18.210938.3125.035156.621094.054688.925781.054688 3.734375 0 6.96875-2.785157 7.4375-6.585938.503906-4.109375-2.417968-7.851562-6.527344-8.359375-21.007812-2.582031-40.757812-9.535156-58.746093-20.652344v-71.773437c0-.015625 0-.027344 0-.039063 0-11.6875-10.253907-22.03125-28.875-29.128906-11.265625-4.289063-25.015625-7.253906-39.949219-8.679687-.503906-4.972657-.765625-10-.765625-15.011719 0-45.632813 21.039063-88.097657 56.792969-115.765625v34.25c0 11.6875 10.253906 22.03125 28.875 29.125 16.339844 6.226562 37.90625 9.65625 60.726562 9.65625 22.820313 0 44.382813-3.429688 60.722656-9.65625 18.621094-7.09375 28.875-17.4375 28.875-29.125v-34.28125c35.800782 27.648437 56.796876 69.988281 56.796876 115.796875 0 5.011719-.261719 10.039062-.765626 15.015625-14.933593 1.425781-28.6875 4.386718-39.953124 8.679687-18.621094 7.09375-28.875 17.4375-28.875 29.128907v71.8125c-19.800782 12.222656-42.484376 19.605468-65.71875 21.34375-4.128907.308593-7.226563 3.90625-6.917969 8.039062.292969 3.9375 3.582031 6.9375 7.46875 6.9375.191406 0 .378906-.007812.570312-.019531 22.585938-1.691407 44.707031-8.21875 64.597657-18.976563v15.300782c0 11.691406 10.253906 22.035156 28.875 29.128906 16.339843 6.226562 37.902343 9.65625 60.722656 9.65625 22.820312 0 44.386718-3.429688 60.722656-9.65625 18.621094-7.09375 28.878906-17.4375 28.878906-29.128906v-104.4375c-.003906-11.691407-10.257812-22.035157-28.878906-29.128907zm-338.144531 14.015625c14.175781 5.402344 19.210937 11.507813 19.214843 15.105469v.003906.011719c-.007812 3.59375-5.046874 9.703125-19.214843 15.101562-14.675781 5.59375-34.34375 8.671876-55.382813 8.671876-7.601562 0-15.15625-.417969-22.449218-1.238282-4.121094-.472656-7.828126 2.5-8.292969 6.613282-.464844 4.117187 2.496093 7.832031 6.613281 8.292968 7.851562.882813 15.96875 1.332032 24.128906 1.332032 22.820313 0 44.386719-3.429688 60.722656-9.65625 5.328126-2.027344 9.964844-4.324219 13.875-6.839844v82.152344c0 3.59375-5.03125 9.710937-19.214843 15.113281-14.675781 5.59375-34.34375 8.671875-55.382813 8.671875-21.039062 0-40.707031-3.078125-55.382812-8.671875-14.183594-5.402344-19.214844-11.515625-19.214844-15.109375v-82.152344c4.960938 3.175781 11.09375 6.007812 18.328125 8.410156 3.933594 1.300782 8.175781-.824218 9.480469-4.753906 1.304687-3.933594-.824219-8.179688-4.753906-9.484375-15.925782-5.289063-23.054688-12.078125-23.054688-16.460937 0-3.59375 5.03125-9.707032 19.21875-15.113282 14.671875-5.589844 34.339844-8.671875 55.378906-8.671875 21.039063 0 40.710938 3.078125 55.382813 8.671875zm185.617187-119.226562c0 3.589844-5.03125 9.707031-19.214844 15.109375-14.675781 5.59375-34.34375 8.671875-55.382812 8.671875s-40.707031-3.078125-55.382812-8.671875c-14.183594-5.402344-19.214844-11.519531-19.214844-15.109375v-82.15625c3.910156 2.515625 8.546875 4.8125 13.875 6.84375 16.339844 6.222656 37.902344 9.652344 60.722656 9.652344s44.382812-3.429688 60.722656-9.652344c5.324219-2.03125 9.964844-4.328125 13.875-6.84375zm166.402344 238.78125c0 3.59375-5.03125 9.707031-19.21875 15.109375-14.671875 5.59375-34.339844 8.671875-55.378906 8.671875-21.039063 0-40.710938-3.078125-55.382813-8.671875-14.183593-5.402344-19.21875-11.519531-19.21875-15.109375v-82.15625c3.914063 2.515625 8.550781 4.8125 13.875 6.84375 16.339844 6.222656 37.90625 9.652344 60.726563 9.652344 22.816406 0 44.382812-3.429688 60.722656-9.652344 5.324219-2.03125 9.960938-4.328125 13.875-6.84375zm-19.21875-89.332032c-14.671875 5.59375-34.339844 8.671876-55.378906 8.671876-21.039063 0-40.710938-3.078126-55.382813-8.671876-14.183593-5.402343-19.21875-11.519531-19.21875-15.109374 0-3.59375 5.035157-9.707032 19.21875-15.113282 14.671875-5.589844 34.34375-8.671875 55.382813-8.671875 21.039062 0 40.707031 3.082031 55.378906 8.671875 14.1875 5.40625 19.21875 11.519532 19.21875 15.113282 0 3.589843-5.03125 9.707031-19.21875 15.109374zm0 0"/><path d="m218.714844 206.285156v1.296875c0 4.140625 3.355468 7.5 7.5 7.5 4.140625 0 7.5-3.359375 7.5-7.5v-1.296875c0-4.144531-3.359375-7.5-7.5-7.5-4.144532 0-7.5 3.355469-7.5 7.5zm0 0"/><path d="m263.5 207.582031v-1.296875c0-4.144531-3.355469-7.5-7.5-7.5-4.140625 0-7.5 3.355469-7.5 7.5v1.296875c0 4.140625 3.359375 7.5 7.5 7.5 4.144531 0 7.5-3.359375 7.5-7.5zm0 0"/><path d="m293.289062 207.582031v-1.296875c0-4.144531-3.355468-7.5-7.5-7.5-4.144531 0-7.5 3.355469-7.5 7.5v1.296875c0 4.140625 3.355469 7.5 7.5 7.5 4.144532 0 7.5-3.359375 7.5-7.5zm0 0"/></g></svg>