<svg height="512pt" viewBox="0 -25 512.00001 512" width="512pt" xmlns="http://www.w3.org/2000/svg"><path d="m348.769531 454.996094h-185.539062c-7.488281 0-10.710938-9.519532-4.75-14.054688 14.546875-11.046875 24.066406-24.851562 30.285156-38.085937 11.359375-24.125 11.75-46.316407 11.75-46.316407h110.96875s.390625 22.191407 11.75 46.316407c6.21875 13.234375 15.738281 27.039062 30.285156 38.085937 5.960938 4.535156 2.738281 14.054688-4.75 14.054688zm0 0" fill="#abffdb"/><path d="m319.304688 393.488281c-7.519532-20.207031-7.820313-36.949219-7.820313-36.949219h-110.96875s-.300781 16.742188-7.820313 36.949219zm0 0" fill="#92e0c0"/><path d="m504.488281 44.328125v269.019531h-496.992187v-269.019531c0-20.347656 16.480468-36.824219 36.816406-36.824219h423.363281c20.335938 0 36.8125 16.476563 36.8125 36.824219zm0 0" fill="#fff"/><path d="m7.496094 291.328125h496.992187v22.019531h-496.992187zm0 0" fill="#e4eaf8"/><path d="m278.5 68.183594v238.441406h-171.609375v-184.863281zm0 0" fill="#ffc850"/><path d="m278.5 68.183594v32.082031l-171.609375 59.679687v-38.183593zm0 0" fill="#f9b428"/><path d="m106.890625 306.628906v-15.296875h171.609375v15.296875" fill="#f9b428"/><path d="m158.003906 222.875h69.386719v83.753906h-69.386719zm0 0" fill="#474d54"/><path d="m488.207031 375.484375h-464.414062c-9 0-16.292969-7.292969-16.292969-16.292969v-52.5625h497v52.5625c0 9-7.292969 16.292969-16.292969 16.292969zm0 0" fill="#abffdb"/><path d="m267.171875 341.054688c0 6.171874-5 11.175781-11.171875 11.175781s-11.171875-5.003907-11.171875-11.175781c0-6.167969 5-11.171876 11.171875-11.171876s11.171875 5.003907 11.171875 11.171876zm0 0" fill="#fff"/><path d="m174.5 155.152344h36.394531v36.394531h-36.394531zm0 0" fill="#474d54"/><path d="m53.339844 127.765625 267.976562-93.203125 10.734375 30.867188-267.976562 93.203124zm0 0" fill="#dae0ea"/><path d="m393.023438 367.984375h-369.230469c-4.847657 0-8.792969-3.945313-8.792969-8.792969v-314.871094c0-16.167968 13.152344-29.320312 29.320312-29.320312h79.371094c4.140625 0 7.5-3.355469 7.5-7.5s-3.359375-7.5-7.5-7.5h-79.371094c-24.4375 0-44.320312 19.882812-44.320312 44.320312v314.871094c0 13.121094 10.671875 23.792969 23.792969 23.792969h164.511719c-4.902344 16.636719-14.714844 37.085937-34.351563 51.988281-5.324219 4.039063-7.386719 10.742188-5.253906 17.078125 2.132812 6.34375 7.835937 10.441407 14.527343 10.441407h47.128907c4.144531 0 7.5-3.359376 7.5-7.5 0-4.144532-3.355469-7.5-7.5-7.5h-47.128907c-.132812 0-.1875-.019532-.1875-.019532-.089843-.066406-.179687-.328125-.15625-.425781 0 0 .03125-.046875.136719-.128906 24.527344-18.609375 35.734375-44.324219 40.855469-63.933594h104.25c5.199219 19.957031 16.464844 45.425781 40.855469 63.933594.097656.074219.128906.121093.132812.121093.027344.109376-.0625.371094-.148437.429688 0 0-.050782.019531-.191406.019531h-107.796876c-4.144531 0-7.5 3.359375-7.5 7.5 0 4.144531 3.355469 7.5 7.5 7.5h107.796876c6.691406 0 12.394531-4.097656 14.527343-10.441406 2.128907-6.332031.070313-13.039063-5.253906-17.074219-19.546875-14.835937-29.398437-35.125-34.359375-51.988281h69.335938c4.144531 0 7.5-3.359375 7.5-7.5 0-4.144531-3.355469-7.5-7.5-7.5zm0 0" fill="#474d54"/><path d="m467.679688 0h-313.371094c-4.144532 0-7.5 3.355469-7.5 7.5s3.355468 7.5 7.5 7.5h313.371094c16.167968 0 29.320312 13.152344 29.320312 29.320312v314.871094c0 4.847656-3.945312 8.792969-8.792969 8.792969h-64.566406c-4.140625 0-7.5 3.355469-7.5 7.5s3.359375 7.5 7.5 7.5h64.566406c13.121094 0 23.792969-10.671875 23.792969-23.792969v-314.871094c0-24.4375-19.882812-44.320312-44.320312-44.320312zm0 0" fill="#474d54"/><g fill="#abb0b7"><path d="m346.425781 198.59375c0 4.140625 3.359375 7.5 7.5 7.5 4.144531 0 7.5-3.359375 7.5-7.5v-1.527344c0-4.144531-3.355469-7.5-7.5-7.5-4.140625 0-7.5 3.355469-7.5 7.5zm0 0"/><path d="m385.0625 198.59375v-1.527344c0-4.144531-3.355469-7.5-7.5-7.5-4.140625 0-7.5 3.355469-7.5 7.5v1.527344c0 4.140625 3.359375 7.5 7.5 7.5 4.144531 0 7.5-3.359375 7.5-7.5zm0 0"/><path d="m389.636719 218.78125h-35.539063c-4.140625 0-7.5 3.359375-7.5 7.5 0 4.144531 3.359375 7.5 7.5 7.5h35.539063c4.144531 0 7.5-3.355469 7.5-7.5 0-4.140625-3.355469-7.5-7.5-7.5zm0 0"/><path d="m346.597656 248.683594c0 4.144531 3.359375 7.5 7.5 7.5h84.722656c4.140626 0 7.5-3.355469 7.5-7.5 0-4.140625-3.359374-7.5-7.5-7.5h-84.722656c-4.140625 0-7.5 3.359375-7.5 7.5zm0 0"/><path d="m368.820312 114.070312c-12.347656 0-22.394531 10.046876-22.394531 22.390626 0 12.347656 10.046875 22.394531 22.394531 22.394531 12.347657 0 22.390626-10.046875 22.390626-22.394531 0-12.34375-10.042969-22.390626-22.390626-22.390626zm0 29.785157c-4.078124 0-7.394531-3.316407-7.394531-7.394531 0-4.078126 3.316407-7.390626 7.394531-7.390626 4.074219 0 7.390626 3.3125 7.390626 7.390626 0 4.078124-3.316407 7.394531-7.390626 7.394531zm0 0"/></g></svg>