<svg height="511pt" viewBox="1 -34 511.99901 511" width="511pt" xmlns="http://www.w3.org/2000/svg"><path d="m504.503906 27.839844v398.144531c0 5.007813-4.058594 9.066406-9.070312 9.066406h-478.867188c-5.011718 0-9.070312-4.058593-9.070312-9.066406v-398.15625c0-10.949219 8.886718-19.835937 19.835937-19.835937h457.335938c10.949219 0 19.835937 8.886718 19.835937 19.847656zm0 0" fill="#fff"/><path d="m504.503906 312.113281v113.867188c0 5.007812-4.0625 9.070312-9.070312 9.070312h-478.867188c-5.007812 0-9.070312-4.0625-9.070312-9.070312v-146.613281l159.792968-135.597657c4.828126-4.09375 11.855469-4.277343 16.886719-.433593l156.734375 119.710937 31.53125-33.78125c4.671875-5.003906 12.347656-5.707031 17.851563-1.640625zm0 0" fill="#e4eaf8"/><path d="m504.503906 407.960938v18.019531c0 5.011719-4.058594 9.070312-9.070312 9.070312h-478.867188c-5.011718 0-9.070312-4.058593-9.070312-9.070312v-125.800781l53.09375-45.058594 84.703125-71.871094 30.785156-26.128906 153.960937 117.589844zm0 0" fill="#abffdb"/><path d="m145.292969 183.25v135.054688c0 11.726562-13.304688 18.507812-22.792969 11.609374l-19.554688-14.207031-19.566406 14.214844c-9.488281 6.894531-22.789062.113281-22.789062-11.613281v-63.1875zm0 0" fill="#92e0c0"/><path d="m504.503906 407.960938v18.019531c0 5.011719-4.058594 9.070312-9.070312 9.070312h-315.023438l149.628906-160.34375zm0 0" fill="#48c397"/><path d="m504.503906 331.859375v94.125c0 5.007813-4.058594 9.066406-9.070312 9.066406h-293.320313l180.460938-193.394531zm0 0" fill="#92e0c0"/><path d="m504.503906 27.84375v70.933594h-497.003906v-70.933594c0-10.960938 8.882812-19.847656 19.835938-19.847656h457.332031c10.949219 0 19.835937 8.886718 19.835937 19.847656zm0 0" fill="#e4eaf8"/><path d="m504.5 82.910156h-497v-55.074218c0-10.953126 8.882812-19.835938 19.839844-19.835938h457.320312c10.957032 0 19.839844 8.882812 19.839844 19.835938zm0 0" fill="#ffc850"/><path d="m129.429688 315.332031-26.484376-19.246093-26.484374 19.246093v-73.675781l52.96875-44.949219zm0 0" fill="#ffc850"/><path d="m484.660156.5h-457.320312c-15.074219 0-27.339844 12.261719-27.339844 27.335938v398.152343c0 9.136719 7.433594 16.566407 16.566406 16.566407h89.125c4.140625 0 7.5-3.355469 7.5-7.5 0-4.144532-3.359375-7.5-7.5-7.5h-89.125c-.863281 0-1.566406-.703126-1.566406-1.566407v-398.152343c0-6.800782 5.535156-12.335938 12.339844-12.335938h457.320312c6.804688 0 12.339844 5.535156 12.339844 12.335938v98.710937c0 4.144531 3.355469 7.5 7.5 7.5 4.140625 0 7.5-3.355469 7.5-7.5v-98.710937c0-15.074219-12.265625-27.335938-27.339844-27.335938zm0 0" fill="#474d54"/><path d="m504.5 149.664062c-4.144531 0-7.5 3.359376-7.5 7.5v268.824219c0 .863281-.703125 1.566407-1.566406 1.566407h-359.125c-4.144532 0-7.5 3.355468-7.5 7.5 0 4.140624 3.355468 7.5 7.5 7.5h359.125c9.132812 0 16.566406-7.433594 16.566406-16.566407v-268.824219c0-4.140624-3.359375-7.5-7.5-7.5zm0 0" fill="#474d54"/><path d="m341.691406 39.339844h-267.53125c-4.140625 0-7.5 3.355468-7.5 7.5 0 4.144531 3.359375 7.5 7.5 7.5h267.53125c4.144532 0 7.503906-3.355469 7.503906-7.5 0-4.144532-3.359374-7.5-7.503906-7.5zm0 0" fill="#fff"/><g fill="#ff8031"><path d="m377.964844 37.304688c-4.144532 0-7.5 3.355468-7.5 7.5v1.300781c0 4.144531 3.355468 7.5 7.5 7.5 4.140625 0 7.5-3.355469 7.5-7.5v-1.300781c0-4.144532-3.359375-7.5-7.5-7.5zm0 0"/><path d="m407.902344 37.304688c-4.144532 0-7.5 3.355468-7.5 7.5v1.300781c0 4.144531 3.355468 7.5 7.5 7.5 4.144531 0 7.5-3.355469 7.5-7.5v-1.300781c0-4.144532-3.355469-7.5-7.5-7.5zm0 0"/><path d="m437.839844 37.304688c-4.144532 0-7.5 3.355468-7.5 7.5v1.300781c0 4.144531 3.355468 7.5 7.5 7.5 4.144531 0 7.5-3.355469 7.5-7.5v-1.300781c0-4.144532-3.355469-7.5-7.5-7.5zm0 0"/></g><path d="m336.761719 160.277344v1.265625c0 4.140625 3.355469 7.5 7.5 7.5 4.140625 0 7.5-3.359375 7.5-7.5v-1.265625c0-4.144532-3.359375-7.5-7.5-7.5-4.144531 0-7.5 3.355468-7.5 7.5zm0 0" fill="#abb0b7"/><path d="m365.835938 160.277344v1.265625c0 4.140625 3.359374 7.5 7.5 7.5 4.144531 0 7.5-3.359375 7.5-7.5v-1.265625c0-4.144532-3.355469-7.5-7.5-7.5-4.140626 0-7.5 3.355468-7.5 7.5zm0 0" fill="#abb0b7"/><path d="m394.914062 160.277344v1.265625c0 4.140625 3.355469 7.5 7.5 7.5 4.144532 0 7.5-3.359375 7.5-7.5v-1.265625c0-4.144532-3.355468-7.5-7.5-7.5-4.144531 0-7.5 3.355468-7.5 7.5zm0 0" fill="#abb0b7"/></svg>