<svg height="511pt" viewBox="-32 1 511 511.99984" width="511pt" xmlns="http://www.w3.org/2000/svg"><path d="m405.722656 206.363281c0 70.71875-36.917968 132.808594-92.519531 168.070313-30.765625 19.492187-67.234375 30.789062-106.339844 30.789062-109.828125 0-198.863281-89.035156-198.863281-198.859375s89.035156-198.863281 198.863281-198.863281c105.382813 0 191.625 81.976562 198.433594 185.644531.28125 4.363281.425781 8.777344.425781 13.21875zm0 0" fill="#abffdb"/><path d="m405.722656 206.363281c0 70.71875-36.917968 132.808594-92.519531 168.070313-36.792969-15.40625-62.707031-51.789063-62.707031-94.101563 0-56.226562 45.742187-101.964843 101.96875-101.964843 19.320312 0 37.414062 5.402343 52.832031 14.78125.28125 4.359374.425781 8.773437.425781 13.214843zm0 0" fill="#92e0c0"/><path d="m398.046875 309.722656v188.808594c0 5.054688-5.902344 7.804688-9.773437 4.554688l-35.8125-30.066407-35.808594 30.066407c-3.871094 3.25-9.773438.5-9.773438-4.554688v-188.808594zm0 0" fill="#abffdb"/><path d="m398.046875 309.722656v60.707032c-13.703125 6.964843-29.195313 10.886718-45.585937 10.886718-16.386719 0-31.882813-3.921875-45.582032-10.886718v-60.707032zm0 0" fill="#92e0c0"/><path d="m439.820312 280.328125c0 48.246094-39.109374 87.359375-87.359374 87.359375-48.246094 0-87.359376-39.113281-87.359376-87.359375s39.113282-87.359375 87.359376-87.359375c48.25 0 87.359374 39.113281 87.359374 87.359375zm0 0" fill="#ffc850"/><path d="m411.691406 280.328125c0 32.710937-26.519531 59.226563-59.230468 59.226563-32.710938 0-59.226563-26.515626-59.226563-59.226563s26.515625-59.230469 59.226563-59.230469c32.710937 0 59.230468 26.519532 59.230468 59.230469zm0 0" fill="#fff"/><g fill="#48c397"><path d="m173.875 178.738281c-2.929688-2.925781-7.675781-2.925781-10.605469 0l-18.734375 18.734375c-2.929687 2.929688-2.929687 7.675782 0 10.605469l18.734375 18.734375c1.464844 1.464844 3.382813 2.195312 5.304688 2.195312 1.917969 0 3.835937-.730468 5.300781-2.195312 2.929688-2.929688 2.929688-7.679688 0-10.605469l-13.429688-13.433593 13.429688-13.429688c2.929688-2.925781 2.929688-7.675781 0-10.605469zm0 0"/><path d="m250.453125 178.738281c-2.929687-2.925781-7.675781-2.925781-10.605469 0-2.929687 2.929688-2.929687 7.679688 0 10.605469l13.433594 13.433594-13.433594 13.429687c-2.929687 2.929688-2.929687 7.675781 0 10.605469 1.464844 1.464844 3.386719 2.195312 5.304688 2.195312 1.917968 0 3.839844-.730468 5.304687-2.195312l18.734375-18.734375c2.925782-2.929687 2.925782-7.675781 0-10.605469zm0 0"/><path d="m220.21875 179.917969c-3.652344-1.953125-8.195312-.574219-10.148438 3.082031l-18.683593 34.976562c-1.949219 3.652344-.570313 8.195313 3.082031 10.148438 1.125.601562 2.335938.886719 3.527344.886719 2.679687 0 5.269531-1.441407 6.621094-3.96875l18.683593-34.980469c1.953125-3.652344.574219-8.195312-3.082031-10.144531zm0 0"/></g><path d="m447.320312 280.328125c0-29.210937-13.273437-55.375-34.105468-72.792969.003906-.390625.007812-.78125.007812-1.175781 0-45.09375-14.285156-87.933594-41.316406-123.886719-2.492188-3.3125-7.1875-3.976562-10.503906-1.488281-3.308594 2.488281-3.976563 7.191406-1.488282 10.5 16.59375 22.070313 28 46.941406 33.820313 73.363281-10.464844-10.417968-24.980469-19.898437-43.203125-28.019531-16.675781-7.433594-35.703125-13.417969-56.316406-17.820313-4.398438-20.609374-10.382813-39.640624-17.816406-56.316406-8.117188-18.207031-17.59375-32.71875-28-43.183594 34.4375 7.605469 66.1875 24.644532 92.007812 49.8125 2.964844 2.890626 7.714844 2.828126 10.605469-.136718s2.828125-7.714844-.136719-10.605469c-38.757812-37.773437-89.902344-58.578125-144.011719-58.578125 0 0 0 0-.003906 0-113.789063 0-206.359375 92.574219-206.359375 206.359375 0 32.738281 7.445312 64.050781 22.132812 93.058594 14 27.660156 34.464844 52.246093 59.183594 71.101562 1.359375 1.035157 2.957032 1.539063 4.542969 1.539063 2.261719 0 4.496094-1.019532 5.972656-2.953125 2.511719-3.292969 1.878907-8-1.414062-10.511719-36.648438-27.957031-61.328125-66.984375-70.921875-110.710938 10.464844 10.414063 24.980468 19.894532 43.195312 28.015626 16.679688 7.433593 35.707032 13.414062 56.320313 17.816406 4.398437 20.613281 10.382812 39.640625 17.816406 56.316406 8.097656 18.167969 17.546875 32.652344 27.925781 43.109375-17.082031-3.792969-33.617187-9.90625-49.015625-18.199219-3.648437-1.964844-8.195312-.601562-10.160156 3.042969-1.964844 3.648437-.601563 8.195313 3.046875 10.160156 29.84375 16.082031 63.640625 24.578125 97.738281 24.578125 32.183594 0 63.960938-7.558594 92.519531-21.886718v107.695312c0 5.285156 2.976563 9.957031 7.769532 12.1875 1.84375.859375 3.789062 1.28125 5.714844 1.28125 3.085937 0 6.125-1.078125 8.613281-3.171875l30.984375-26.015625 30.984375 26.015625c4.046875 3.398437 9.535156 4.125 14.328125 1.890625 4.789062-2.230469 7.765625-6.902344 7.765625-12.1875v-53.5625c0-4.144531-3.355469-7.5-7.5-7.5-4.140625 0-7.5 3.355469-7.5 7.5v50.234375l-33.253907-27.925781c-2.792968-2.339844-6.859374-2.339844-9.648437 0l-33.257813 27.925781v-128.003906c11.660157 5.132812 24.542969 7.988281 38.082032 7.988281 13.535156 0 26.414062-2.855469 38.078125-7.988281v47.152343c0 4.140626 3.355469 7.5 7.5 7.5s7.5-3.359374 7.5-7.5v-55.441406c25.191406-17.074218 41.777343-45.925781 41.777343-78.582031zm-50.59375-83.878906c-13.222656-7.003907-28.289062-10.980469-44.265624-10.980469-18.132813 0-35.089844 5.117188-49.511719 13.976562-.332031-22.242187-2.261719-43.878906-5.667969-64.253906 52.960938 12.394532 91.546875 35.121094 99.445312 61.257813zm-139.125 83.878906c0 1.40625.039063 2.804687.097657 4.195313-16.496094 1.976562-33.570313 2.988281-50.839844 2.988281-26.25 0-51.464844-2.386719-74.496094-6.652344-4.265625-23.03125-6.652343-48.246094-6.652343-74.5 0-26.25 2.386718-51.464844 6.652343-74.496094 23.03125-4.265625 48.246094-6.652343 74.496094-6.652343 26.253906 0 51.46875 2.386718 74.5 6.652343 4.265625 23.03125 6.652344 48.246094 6.652344 74.496094 0 1.496094-.015625 2.980469-.03125 4.464844-18.671875 17.335937-30.378907 42.074219-30.378907 69.503906zm20.429688-164.386719c-22.484375-3.757812-46.5-5.730468-71.171875-5.730468-24.667969 0-48.683594 1.96875-71.167969 5.730468 13.9375-59.554687 40.941406-100.941406 71.167969-100.941406 30.230469 0 57.234375 41.386719 71.171875 100.941406zm-112.761719-96.375c-10.386719 10.460938-19.839843 24.949219-27.941406 43.125-7.433594 16.675782-13.417969 35.707032-17.820313 56.320313-20.609374 4.398437-39.640624 10.382812-56.316406 17.816406-18.175781 8.101563-32.667968 17.558594-43.125 27.945313 16.0625-72.191407 73.015625-129.144532 145.203125-145.207032zm-149.769531 186.792969c0-30.226563 41.386719-57.230469 100.941406-71.167969-3.757812 22.484375-5.726562 46.5-5.726562 71.167969 0 24.671875 1.96875 48.6875 5.726562 71.171875-59.554687-13.9375-100.941406-40.941406-100.941406-71.171875zm120.191406 90.421875c22.484375 3.761719 46.5 5.730469 71.167969 5.730469 17.882813 0 35.566406-1.050781 52.671875-3.101563 1.972656 9.617188 5.410156 18.707032 10.058594 27.03125-15.601563 44.660156-38.992188 71.28125-62.726563 71.28125h-.003906c-30.226563 0-57.230469-41.386718-71.167969-100.941406zm163.691406 77.113281c-15.964843 8.832031-33.144531 15.304688-50.933593 19.253907 12.023437-12.101563 22.753906-29.566407 31.542969-51.6875 5.628906 6.660156 12.152343 12.542968 19.390624 17.445312zm53.078126-13.707031c-44.03125 0-79.855469-35.824219-79.855469-79.859375s35.824219-79.859375 79.855469-79.859375c44.035156 0 79.859374 35.824219 79.859374 79.859375s-35.824218 79.859375-79.859374 79.859375zm0 0" fill="#474d54"/><path d="m364.289062 304.46875h-4.328124v-58.5c0-3.035156-1.824219-5.769531-4.628907-6.929688-2.804687-1.164062-6.027343-.519531-8.175781 1.625l-12.632812 12.636719c-2.929688 2.929688-2.929688 7.675781 0 10.605469 2.871093 2.871094 7.5 2.925781 10.4375.160156v40.398438h-4.136719c-4.144531 0-7.5 3.359375-7.5 7.5 0 4.144531 3.355469 7.5 7.5 7.5h23.464843c4.140626 0 7.5-3.355469 7.5-7.5 0-4.140625-3.359374-7.496094-7.5-7.496094zm0 0" fill="#ffc850"/></svg>